<svg viewBox="0 0 4050 4050" xmlns="http://www.w3.org/2000/svg" xml:space="preserve"
  style="fill-rule:evenodd;clip-rule:evenodd;stroke-linejoin:round;stroke-miterlimit:2">
  <ellipse cx="1277.95" cy="1141.13" rx="220.1" ry="198.66" style="fill:#ff8e09"
    transform="matrix(9.20036 0 0 10.1936 -9732.64 -9607.15)" />
  <path
    d="M2047 2317.27c-55.54-117.32-71.01-270.46-48.31-459.45v-.13c-21.09.42-41.85.92-62.23 1.48l-.19.76c-41.86 160.49-215.35 160.46-267.9 204.9-170.45 210.67 58.7 262.29 82.41 255.42 0 0 62.25 5.73 87.82-17.13-2.12-17.51 8.71-86.8 8.71-86.8 26.71 71.96 25.72 131.78 172.87 115.24l26.82-14.29ZM2840.87 2260.75c8.52 93.85-14.14 118.64 22.15 131.79 130.38 47.22 222.6-124.63 208.47-152.92.46 65.75 44.69 100.25 101.84 111.71 40.25 8.06 163.71-116.88 129.05-165.15-37.95-52.85-86.39-44.1-132.72-73.36-72.09-45.55-80.42-167.3-81.12-180.74 0 0-383.46-37.28-619.11-60.21-115.85-11.27-230.6-15.14-339.4-15.42v9.9c6.84 149.98 180.97 233.71 270.75 245.27 27.68 3.57 10.87-89.43-18.76-164.38 57.31 99.13 247.77 181.52 394.33 208.26 29.06 5.3 49.03 11.09 70.5 14.19"
    style="fill:#ff6329" />
  <path
    d="M2846.85 2254.76v-85.38c-18.92-3.26-45.61-9.34-70.5-13.88-146.56-26.74-337.02-109.13-394.33-208.26 29.63 74.95 46.44 167.95 18.76 164.38-89.78-11.56-263.91-95.29-270.75-245.27l-131.34-8.53c-46.1 383.78 65.2 619.74 349.88 708.02 137.15 11.67 346.92-78.12 492.3-305.09l5.98-5.99Z"
    style="fill:#ffca00" />
  <path
    d="M2083.85 2118.2c3.04-43.08 33.05-57.07 46.23-60.4l-.61.04a54.4 54.4 0 0 1 10.11-.95c31.95 0 57.89 27.96 57.89 62.4 0 34.43-25.94 62.39-57.89 62.39-25.43 0-60.3-21.13-55.73-63.48ZM2556.38 2080.26l82.52 40.24c.11 4.03-.44 8.16-1.76 12.34-10.89 34.51-28.6 55.24-63.07 60.76-23.73.87-55.2-15.3-53.96-61.84.66-17.3 21.88-39.05 36.27-51.5Z"
    style="fill:#1d0045" />
  <path
    d="M2131.37 2231.9c26.32 1.65 95.84 31.35 90.51 92.72-3.91 44.91-23.88 78.11-64.83 85.68l-27.24-.38-79.42-96.45c0-46.54 50.71-72.26 72.63-74.03.44-3.28 4.03-6.68 8.35-7.54Z"
    style="fill:#f7a300" transform="translate(-1.38)" />
  <path
    d="M2143.12 2242.92c10.25-1.18 23.46.88 36.13 6.61 8.63 5.77 8.24 10.18 12.42 13.42 3.61 2.18 27.25 22.62 30.21 61.67 1.04 13.85 2.52 25.69-1.36 34.16-11.24 24.56-38.07 45.14-62.28 52.42-6.15 1.85-13.99 2.56-25.65 2.68-75.21.79-77.68-72.45-77.93-76.37-2.73-42.33 47.78-89.89 88.46-94.59Z"
    style="fill:#f7a300" transform="translate(470.86)" />
  <path
    d="M2036.68 2344.27c60.85 116.62 162.34 197 305.72 241.47 1.43.44 2.9.73 4.4.86 131.15 11.16 327.26-65.64 475.21-262.22-.56 20.42-1.9 34.86-.72 45.44 1.22 10.88 4.52 19.19 10.13 26.1 5.26 6.48 12.82 11.97 24.5 16.2 98.21 35.58 178.31-37.08 215.07-99.82 20.98 31.9 56.49 51.08 98.25 59.45 10.68 2.14 25.69-.59 42.25-9.36 28.49-15.08 64.8-48.23 89.1-82.96 14.88-21.26 25.16-43.21 27.89-62.06 2.41-16.64-.62-31.43-9.17-43.34-22-30.64-46.89-43.63-73.15-53-21.26-7.58-43.62-12.09-65.37-25.83-26.63-16.82-42.72-45.98-53.12-74.42-16.7-45.71-18.37-90.66-18.37-90.66a20.83 20.83 0 1 0-41.64 1.5l20.88 103.47c13.45 36.79 35.55 73.57 70 95.34 20.13 12.72 40.55 19.04 60.55 25.46 23.68 7.62 46.83 15.23 66.37 42.44 3.58 4.99 2.51 11.65.55 18.94-3.24 12.08-10.44 25.25-19.56 38.28-17.64 25.21-42.58 49.62-64.56 64.11-6.44 4.24-12.55 7.6-18.07 9.63-2.51.92-4.61 1.97-6.39 1.61-42.87-8.6-77.73-32.15-84.07-77.05l.17-1.56c.81-9.36-.81-16.8-3.4-21.97a20.82 20.82 0 0 0-39.47 9.44c.03 4.46.23 8.79.6 13-.3 1.69-.69 3.52-1.16 5.15-2.24 7.72-6.05 16.75-11.16 26.35-26.68 50.12-88.93 117.63-168.83 88.69-2.84-1.03-5.06-1.71-6.34-3.29-2.35-2.89-1.43-7.05-1.41-12.69.07-19.97 3.6-50.23-.75-98.11a20.82 20.82 0 0 0-38.29-9.35c-139.21 217.36-338.66 305.82-470.76 295.75-273.51-85.86-377.62-315.03-333.19-684.95a20.84 20.84 0 0 0-41.37-4.97c-22.26 185.36-8.4 337.05 42.72 455.39-.94-.02-1.9.02-2.87.13-52.18 5.86-83.5 2.32-103.63-9.83-13.15-7.94-20.53-19.7-26.53-33.35-7.63-17.32-12.99-37.44-20.85-58.61a20.84 20.84 0 0 0-40.12 4.04s-7.65 51.1-8.93 79.03c-6.99 3.42-15.69 5.08-24.04 6.25-20.99 2.95-41.06 1.11-41.06 1.11-2.2-.2-4.42-.05-6.57.45-1.72-.18-24.8-2.68-43.07-9.43-32.01-11.84-70.63-35.21-75.84-78.79-3.98-33.25 11.02-76.06 56.04-132.16 20.29-16.1 58.16-25.26 98.48-40.76 71.39-27.42 149.5-70.79 175.66-177.42a20.84 20.84 0 0 0-40.47-9.92c-22.12 90.16-89.76 125.26-150.13 148.45-46.54 17.88-89.43 30.03-111.87 49-1 .84-1.92 1.78-2.74 2.8-56.24 69.5-71.25 123.95-66.34 164.96 7.27 60.83 58.06 96.39 102.76 112.92 25.95 9.59 49.76 12.22 61.9 11.52 5.9.43 27.05 1.62 49.03-1.46 19.85-2.79 39.97-9.4 52.95-21.01a20.78 20.78 0 0 0 6.94-15.25c8.28 13.3 18.8 24.57 33.27 33.3 25.28 15.27 64.27 22.93 129.81 15.56a20.76 20.76 0 0 0 14.18-7.99Zm356.8-254.86c-41.71-7.43-98.38-29.47-146.79-65.27-50.72-37.51-92.72-90.34-95.84-158.74a20.85 20.85 0 0 0-21.76-19.86 20.86 20.86 0 0 0-19.87 21.76c3.72 81.59 52.2 145.6 112.7 190.34 58.83 43.51 128.71 68.53 176.19 74.65 18.49 2.38 34.61-9.21 37.18-38.63 1.35-15.54-1.22-38.39-6.66-64.07 19.07 15.51 40.72 30.27 64.2 44.05 83.33 48.9 189.64 85.91 279.78 102.35 79.37 14.48 119.09 30.54 186.71-4.04a20.84 20.84 0 0 0-18.97-37.1c-58.03 29.68-92.15 12.58-160.26.15-85.74-15.64-186.91-50.78-266.17-97.3-50.67-29.73-92.43-63.82-113.86-100.89a20.84 20.84 0 0 0-37.41 18.09c16.88 42.7 29.59 91.52 31.21 123.05.19 3.66-.07 7.98-.38 11.46Zm234.85-74s16.64 6.67 37.33 15.81a1005.99 1005.99 0 0 1 36.57 17.06 14.6 14.6 0 0 0 11.75-26.7 1110.17 1110.17 0 0 0-31.12-11.48c-25.2-8.94-46.84-15.95-46.84-15.95a11.3 11.3 0 0 0-7.69 21.26Zm73.25-28.11s15.36 8.15 34.5 19.85a536.66 536.66 0 0 1 22.15 14.26 14.6 14.6 0 0 0 20.02-4.98 14.6 14.6 0 0 0-4.99-20.02 527.8 527.8 0 0 0-31.22-15.17c-18.23-8.08-31.98-13.08-31.98-13.08a10.47 10.47 0 0 0-8.48 19.14Z"
    style="fill:#001455" />
  <path
    d="M2025.32 1552.1c219.48-19.96 782.98 67.3 1071.19 183.76l3.47 7.3s570.6 202.08 433.74 222.74c-128.5-.48-543.71-43.38-1064.29-94.03-531-51.67-1039.17 52.16-1054.95-54.71-35.31-43.62 390.14-213.46 610.52-264.33l.32-.73"
    style="fill:#ff7100" />
  <path
    d="m2994.44 1520.94 102.07 214.92c-288.21-116.46-851.71-203.72-1071.19-183.76-18.03 1.64-18.03 1.64 0 0 11.55-26.61 40.43-81.3 80.01-150.12 0 0-2.85.7 0 0 234.02-57.13 753.64 54.29 882.79 116.44l6.32 2.52Z"
    style="fill:#ff9423" />
  <path
    d="M2105.33 1401.98c134.16-233.2 391.3-628.6 513.99-642.97 113.15-5.1 340.43 344.86 358.09 341.52 29.86-5.65 164.93-181.17 198.53-178.9 27.07 12.66 137.88 296.66 166.15 361.47-52.1 24.69-145.19-63.67-174.69-78.82-25.76 14.29-58.32 202.7-91.99 230.69-19.38 16.1-164.34-89.56-164.34-89.56l83.37 175.53-6.32-2.52c-130.72-62.9-661.48-176.29-891.2-114.28"
    style="fill:#ff7100" />
  <path
    d="m2091.75 1383.96-.26.07a20.85 20.85 0 0 0-14.69 25.54l.09.31c-30.09 52.93-53.07 96.19-65.61 122.78-14.2 1.62-26.8 3.72-37.61 6.31a20.75 20.75 0 0 0-12.41 8.63c-181.37 50.06-440.93 151.8-529.82 213.04-22.59 15.56-35.17 30.62-38.42 41.3-2.59 8.55-1.89 16.25 1.79 23.13 4.05 16.88 15.98 30.79 36.74 40.84 24.61 11.92 64.31 18.64 116.36 21.24 188.07 9.38 548.2-30.67 919.5 5.46 521.53 50.74 937.5 93.65 1066.24 94.12 1.07 0 2.13-.07 3.19-.23 27.51-4.16 36.95-18.02 38.59-28.7 1.5-9.79-3.54-24.75-21.05-39.11-65.28-53.52-340.53-156.24-423.6-186.55a20.77 20.77 0 0 0-9.91-8.75c-2.97-1.26-5.98-2.52-9-3.77l-148.91-313.53c27.69 17.93 58.62 36.47 80.18 45.09 11.99 4.79 22.1 6.68 28.92 6.2 7.09-.49 12.56-2.98 16.67-6.39 7.75-6.45 16.15-19.11 23.78-36.36 14.16-32.08 28.04-82.15 41.02-125 6.82-22.54 13.34-42.96 19.61-57.05 20.78 14.63 52.16 39.58 83.73 56.23 26.25 13.84 52.85 21.48 75.54 18.48 21.25 34.79 40.54 64.06 59.4 83.85 17.37 18.23 35.06 28.99 52.99 31.82 82.12 12.98 134.04-35.52 153.21-84.53 8.74-22.36 10.51-44.97 6.09-62.67a20.98 20.98 0 0 0-2.65-6.15c-35.14-55.12-71.94-67.12-100.33-62.11-22.8 4.02-42.3 19.68-54.99 39.5-12.47 19.45-18.02 42.53-15.48 60.31 1.68 11.8 10.98 22.48 26.67 27.99 19.09 6.72 49.22 6.45 49.22 6.45a20.83 20.83 0 1 0-.74-41.66l-21.79-1.32c-3.61-.48-8.96-1.95-12.33-2.95.47-8.38 4.12-17.91 9.53-26.35 6.43-10.03 15.6-18.9 27.14-20.94 16.89-2.97 35.2 8.86 55.94 40.36 1.65 10.06-.35 22.23-5.09 34.37-13.44 34.38-50.29 67.65-107.9 58.55-10.2-1.62-19.44-9.04-29.33-19.41-19.41-20.37-38.97-51.84-61.33-88.88-23.36-53.85-98.35-244.44-141.34-325.43-8.45-15.92-15.95-27.95-21.67-34.77-4.75-5.65-9.34-8.92-12.86-10.57a20.87 20.87 0 0 0-7.43-1.91c-5.95-.4-13.76 1.12-22.64 5.88-11.68 6.27-27.61 19.46-45.27 36.48-37.15 35.8-83.76 89.22-115.55 119.41a210.73 210.73 0 0 1-14.72 12.53c-10.82-11.86-27.89-33.83-49.14-60.77-56.93-72.16-141.5-178.5-214.62-234.68-35.63-27.37-69.56-42.73-97.01-41.49-.5.02-1 .06-1.49.12-21.94 2.57-47.97 15.03-76.29 36.47-38 28.78-81.41 74.07-126.62 128.98-113.63 137.98-239.58 337.19-322.24 480.19Zm989.45 368.21c-216.07-85.55-580.23-154.55-840-175.55-83.47-6.74-155.97-8.66-208.83-4.31-.87.33-1.76.6-2.68.82-174.11 40.19-477.94 155.23-574.61 221.83-8.28 5.7-16.63 13.73-20.33 17.43.15.57.26 1.14.34 1.72 1.4 9.48 11.27 13.82 24.84 18.43 21.58 7.32 52.12 11.1 90.06 12.99 188.47 9.4 549.36-30.6 921.45 5.6 500.06 48.66 902.71 90.22 1046.68 93.7-7.97-5.76-17.91-12.47-27.77-17.9-119.88-65.98-397.32-164.13-397.32-164.13a20.84 20.84 0 0 1-11.83-10.63Zm-102.1-214.97-.01-.01c-77.42-37.25-297.07-92.07-509.31-117.04-132.04-15.53-261.22-19.7-350.98.09-25.11 43.87-45.54 81.49-59.45 108.96 51.01-1.94 114.35.17 185.21 5.89 247.64 20.02 588.7 83.33 810.91 162.91l-76.37-160.8Zm-26.43-55.64-60.42-127.21a20.85 20.85 0 0 1 31.09-25.77s69.44 50.67 117.62 75.65c8.51 4.41 19.57 8.49 25.05 10.4 6.06-8.27 11.48-23.17 17.67-40.54 13.64-38.34 26.8-88.41 39.07-125.51 6.83-20.63 13.62-37.55 19.89-47.53 4.8-7.65 10.07-12.45 14.66-14.99a20.82 20.82 0 0 1 19.62-.31c17.73 9.11 58.41 44.6 99.39 66.2 11.76 6.21 23.49 11.21 34.59 13.47l1.21.23c-25.85-62.2-75.24-185.17-112.51-263.68-10.56-22.25-23.4-44.15-30.17-55.31-1.4.88-2.81 1.83-4.04 2.75-13.93 10.48-31.56 27.75-50.28 47.08-34.64 35.75-72.66 78.37-98.53 101.91-15.02 13.67-27.95 21.21-35.3 22.6-4.12.78-11.04.88-18.94-4.66-6.13-4.3-18.31-17.65-34.3-37.45-49.01-60.67-142.74-187.08-225.35-256-30.55-25.48-58.43-43.73-81.7-43.1-16.1 2.15-34.54 12.56-55.22 28.22-35.97 27.23-76.83 70.3-119.62 122.25-104.17 126.49-218.92 305.2-299.96 442.82 90.3-12.9 208.24-8.45 328.46 5.69 185.51 21.83 376.41 66.42 478.02 102.79Zm-337.84-333.06 242.4 139.06a20.84 20.84 0 0 0 20.73-36.14l-242.4-139.06a20.84 20.84 0 0 0-20.73 36.14Z"
    style="fill:#001455" />
  <path
    d="M1849.58 2206.26c154.54 21.99 328.5 155.78 417.48 201.78 98.6-55.96 443.31-175.68 510.91-197.55-83.39 161.75-240.51 393.1-311.2 407.21-60.18 12-139.13-166.59-169.34-190.35-67.72 41.98-186.07 141.58-274.89 139.32-75.27-118.14-221.32-367.29-172.96-360.41Z"
    style="fill:#ff7100" transform="translate(126.24 299.83)" />
  <path
    d="M1852.95 2182.54c-11.34-1.61-19.6 1.77-25.7 7.03-7.66 6.62-14.35 22.07-8.8 45.67 15.35 65.38 122.41 247.82 183.88 344.31a23.95 23.95 0 0 0 19.59 11.07c39.14 1 83.72-15.17 127.62-38.83 52.38-28.25 104.1-66.89 143.62-93.18 5.54 7.92 11.97 18.5 19.32 30.24 22.64 36.17 50.88 82.81 79.23 113.71 26.57 28.97 55.29 43.51 79.75 38.63 24.22-4.83 58.6-30.31 95.65-70.96 76.84-84.31 172.89-233.81 232.15-348.77a23.95 23.95 0 0 0-28.67-33.77c-65.73 21.27-391.1 134.44-503.61 193.14-93.36-51.32-263.03-176.8-414.03-198.29Zm461.78 228.1c102.49-48.24 306.56-121.34 413.33-158.06-56.82 101.27-133.2 216.08-196.36 285.37-18.05 19.8-34.85 35.76-49.72 46.12-7.44 5.19-14 8.95-19.89 10.13-6.1 1.22-11.87-3.23-18.45-8.34-11.58-8.97-23.19-22.41-34.66-37.58-26.76-35.4-52.03-79.98-70.96-108.36-8.87-13.29-16.94-23.46-23.29-29.28Zm-446.49-176.79c144.44 29.95 301.04 149.72 385 193.99-36.55 25.06-81.22 57.39-126.44 81.77-31.27 16.86-62.63 30.15-91.34 32.7-52.45-83.16-132.51-218.58-161.81-292.4-2.1-5.3-3.93-10.95-5.41-16.06Z"
    style="fill:#001455" transform="translate(126.24 299.83)" />
  <g>
    <path
      d="M2444.46 3102.62c-90.79 66.2-79.48 84.8-79.48 84.8s-21.84 50.8-7.31 76.89c19.65 35.27 49.66 25.03 75.07 21.55 9.2 8.82 28.87 29.28 56.54 27.78 12.29-.66 23.39-14.01 37.49-53.99 1.37-20.34 20.7-23.39 36.59-23.13 39.9.64 73.39 25.54 83.5.96 21.86-12.34-51.81-167.68-179.29-201.12-18.96-24.58-194.93-109.25-232.15-117.57-41.19 3.75-34.74 33.42-20.4 59.58l-5.05-11.29c24.34 68.58 174.41 138.7 222.1 138.96l12.39-3.42Z"
      style="fill:#ffca00" />
    <path
      d="M2364.98 3187.42s-5.14-8.46 19.37-34.29l-4.17-59.45c-42.78-15.6-96.99-44.4-133.34-77.24l-2.52 3.02s-439.26-259.4-621.97-349.26c-17.64-12-10.48 14.2-10.48 14.2 242.58 97.38 587.76 455.25 753.11 503.02"
      style="fill:#ff7100" />
  </g>
  <g>
    <path
      d="M2416.35 3307.1a18.64 18.64 0 0 0 11.99.23c13.32 11.62 34.7 26.51 61.94 25.04 9.15-.5 18.3-4.1 27.23-13.8 8.26-8.97 17.25-25.2 26.94-52.68.57-1.61.92-3.28 1.03-4.98.18-2.63 2.02-3.68 3.98-4.28 4.28-1.3 9.14-1.44 13.6-1.37 23.18.38 44.08 9.43 59.25 11.29 11.18 1.38 20.5-.28 27.85-4.83a33.77 33.77 0 0 0 11.9-12.63 26.29 26.29 0 0 0 5.3-8.82c2.34-6.34 2.94-16.67-.32-29.77-12.44-49.93-82.9-160.12-189.77-190.91-9.62-8.63-28.39-21.05-52.03-34.26-62.23-34.77-158.97-78.86-185.73-84.84-1.9-.42-3.85-.55-5.79-.37-23.21 2.11-35.73 11.32-42.29 21.91-6.78 10.98-7.76 25.09-3.52 40.23.27.95.56 1.91.87 2.87-129.07-75.44-417.07-242.24-557.1-311.23-16.38-10.54-26.66-4.64-31.99.21-4.24 3.85-7.44 10.13-7.93 17.8-.49 7.72 2.03 17.44 2.03 17.44a18.72 18.72 0 0 0 11.1 12.45c144.27 57.92 324.92 209.13 481.95 330.79 98.34 76.19 187.9 140.79 254.18 166.46-2.1 7-4.23 15.36-5.58 24.04-2.76 17.78-1.8 36.61 5.85 50.34 20.13 36.13 48.08 37 75.06 33.67Zm28.74-35.34c.21.18.42.37.62.57 7 6.7 21.24 23.55 42.22 22.6.25-.18.82-.59 1.15-.91a25.05 25.05 0 0 0 3.06-3.6c5.15-7.14 10.28-18.37 16.19-34.86 3.58-30.03 30.81-38.19 55.33-37.79 21.35.34 41.02 6.92 56.67 10.38 3.1.68 7.49 1.06 9.63 1.22.47-.97 1.01-1.9 1.63-2.77-.78-4.16-3.1-15.25-6.97-24.32-20.64-48.37-78.82-126.01-161.81-147.78a18.7 18.7 0 0 1-10.09-6.69c-5.01-6.48-22.93-16.98-45.77-29.74-56.99-31.85-144.27-72.53-172.89-80.3h-.01c-5.08.57-8.68 1.41-10.61 3.83-1.98 2.48-.61 5.91.31 9.53a56.91 56.91 0 0 0 1.66 5.32 18.67 18.67 0 0 1 2.23 4.36 63.8 63.8 0 0 0 3.54 8.08c1.02 1.86 2.08 3.7 3.17 5.5 12.33 19.64 35.27 38.58 60.91 55.51 49.51 32.69 110.21 57.24 136.91 57.39.48 0 .95.02 1.42.06a18.75 18.75 0 0 1 21.92 30.42c-30.32 22.11-48.77 38.58-59.86 50.74a87.36 87.36 0 0 0-12.03 16.83c.35 3.19-.11 6.47-1.41 9.49 0 0-6.93 16.14-9.72 34.03-1.43 9.25-2.42 19.18 1.56 26.32 8.79 15.77 21.02 16.85 33.01 15.58h.06l15.59-82.96a18.72 18.72 0 0 1 10.32-13.44l43.22-20.74a18.76 18.76 0 0 1 16.22 33.82l-34.66 16.62-12.72 67.7Zm-63.87-93.71.26.45v.01l.01.02a11.11 11.11 0 0 1-.27-.48Zm-137.7-139.85c-3-.13-6-.98-8.73-2.59 0 0-159.66-94.3-326.36-188.78 68.39 51.39 136.88 106.14 201.37 156.11 94.26 73.03 179.51 135.87 242.84 160.48 2.66-4.49 6.61-10.04 12.46-16.76l-2.81-40.02c-28.25-11.19-59.65-26.93-87.69-45.45a346.3 346.3 0 0 1-31.08-22.99Z"
      style="fill:#001455" />
  </g>
  <g>
    <path
      d="M1666.32 2614.63s11.18-29.7 16.86-47.02c2.31-7.01 3.58-12 3.58-12a12.56 12.56 0 0 0-23.45-8.98s-2.38 4.56-5.36 11.32c-7.34 16.67-18.86 46.24-18.86 46.24a14.58 14.58 0 1 0 27.23 10.44ZM1585.89 2467.52c-.05 5.06.5 17.87 1.26 33.06 1.63 32.26 4.28 75.4 4.28 75.4a15.62 15.62 0 0 0 31.14-2.65l-10.55-106.19a13.06 13.06 0 0 0-26.13.38ZM1489.53 2740.17s18.26-7.39 34.82-15.02c9.64-4.44 18.71-8.89 23.68-12.17a11.37 11.37 0 0 0-11.51-19.62c-4.59 2.38-12.85 5.31-21.56 8.28-16.7 5.69-35.01 10.98-35.01 10.98a14.6 14.6 0 0 0 9.58 27.55Z"
      style="fill:#001455" />
  </g>
  <g>
    <path
      d="M1408.6 1986.39c.25.12-.3.72 0 .92 1.11.74 1.6 2.29 3.11 3.37 1.92 1.37 4.15 2.86 6.75 4.44 27.71 16.78 81.7 53.09 140.08 94.16a21.9 21.9 0 0 0 30.48-5.3 21.9 21.9 0 0 0-5.3-30.48c-49.79-35.12-95.88-67.84-126.82-86.79-8.17-5-15.19-9.42-21.34-12.09a31 31 0 0 0-5.06-1.85c-7.26-1.71-12.3-2.74-16.24-2.22a18.14 18.14 0 1 0-5.66 35.84Z"
      style="fill:#ea329a" />
    <path
      d="m1460.74 2093.66 82.49-116.87c7.45-10.57 5.5-24.8-4.37-31.76-9.86-6.97-23.91-4.05-31.37 6.51l-82.48 116.87c-7.46 10.56-5.5 24.79 4.36 31.76 9.86 6.97 23.92 4.05 31.37-6.51Z"
      style="fill:#ea329a" transform="matrix(.97823 .03104 .03104 .95573 -27.54 39.27)" />
    <path
      d="M1132.5 2060.13c-42.58 3.88-93.79 15.06-154.97 38.42-78.57 30.01-104.92 48.71-194.38 214a21.88 21.88 0 0 0 37.84 21.93c122.1-197.11 299.71-137.67 495.23-69.81 6.21 3.55 13.64 11.74 13.64 11.74a21.89 21.89 0 0 0 31.56-30.3s-15.32-15.48-26.71-21.14c-.83-.42-1.69-.78-2.57-1.08-152.88-53.08-295.13-96.47-413.23-41.13 21.34-20.95 42.9-31.37 74.23-43.34 163.94-62.61 248.06-29.64 284.27-14.39 14.44 6.09 24.59 8.63 30.26 8.1a21.88 21.88 0 0 0 3.82-42.86c-26.55-7.39-54.19-23.44-86.3-39.34-82.21-40.72-190.53-82.11-369.32-7.19a21.88 21.88 0 0 0 16.91 40.35c113.35-47.5 195.3-43.36 259.72-23.96ZM608.58 2159.97c-23 65.09-69.36 136.23-69.36 136.23a21.9 21.9 0 0 0 6.41 30.27 21.9 21.9 0 0 0 30.27-6.41s49.38-76.02 73.93-145.52a21.88 21.88 0 0 0-41.25-14.57Z"
      style="fill:#ea329a" />
    <path
      d="M474.74 2221.16c31.93 11.06 82.1 36.49 130.12 52a21.88 21.88 0 0 0 13.45-41.63c-47.7-15.41-97.53-40.73-129.26-51.72a21.89 21.89 0 0 0-14.31 41.35ZM574.87 2537.24c90.6 177.21 153.91 200.63 182.6 207.96a21.86 21.86 0 0 0 21.24-36.3c-115.44-120.93-89.42-254.13-65.66-288.21a21.88 21.88 0 0 0-35.89-25.02c-19.64 28.18-44.46 114.36-11.25 212.58-22.06-33.21-47.25-78.22-75.66-139.35a21.88 21.88 0 0 0-36.7-4.72c-4.54 5.49-12.1 20.65-17.54 43.63-10.7 45.18-16.15 124.56 19.03 210.41a21.89 21.89 0 0 0 40.48-16.59c-26.19-63.91-26.83-123.7-20.65-164.39ZM1005.26 3039.8c-.37-.1-3.35-.96-5.63-2.62a21.89 21.89 0 0 0-30.56 4.82 21.89 21.89 0 0 0 4.82 30.56c13.38 9.73 25.49 10.86 29.23 10.97 91.37 9.44 165.19-4.8 214.25-44.63 34.23-27.79 57.22-67.98 65.6-122.59a21.87 21.87 0 0 0-30.34-23.38c-91.83 39.92-196.88 59.81-307.51-3.71a21.88 21.88 0 1 0-21.79 37.94c108.69 62.41 212.59 54.71 306.02 21.92-30.63 77.83-112.37 102.45-222.81 90.81-.43-.04-.85-.07-1.28-.09ZM660.06 3062.2s73.07 15.64 132.27 64.76a21.89 21.89 0 0 0 27.94-33.67c-67.6-56.09-151.07-73.87-151.07-73.87a21.87 21.87 0 1 0-9.14 42.78Z"
      style="fill:#ea329a" />
    <path
      d="M751.24 2999.48c-38.84 44.33-88.18 124.76-88.18 124.76a21.89 21.89 0 0 0 7.23 30.08 21.9 21.9 0 0 0 30.08-7.23s46.82-76.6 83.78-118.78a21.89 21.89 0 0 0-2.04-30.87 21.9 21.9 0 0 0-30.87 2.04ZM1450.81 2829.97s83.59 48.11 134.43 68.21a21.87 21.87 0 1 0 16.09-40.68c-48.69-19.25-128.67-65.44-128.67-65.44a21.89 21.89 0 0 0-21.85 37.91Z"
      style="fill:#ea329a" />
    <path d="m1525.09 2773.73-71.13 113.54a21.88 21.88 0 0 0 37.08 23.22l71.12-113.53a21.88 21.88 0 0 0-37.07-23.23Z"
      style="fill:#ea329a" />
  </g>
  <g>
    <path
      d="m891.65 2583.23 131.56-137.5a21.88 21.88 0 0 0-31.61-30.24l-147.5 154.16a21.88 21.88 0 0 0-2.08 27.72c2.14 3.04 9.08 9.93 21.2 19.21 22.1 16.93 64.55 45.95 123.26 81.28a21.88 21.88 0 0 0 22.56-37.48c-55.18-33.21-95.54-60.6-117.39-77.15ZM1226.74 2351.55c-34.08 86.67-115.42 240.46-165.07 380.13a21.88 21.88 0 0 0 41.23 14.65c49.47-139.18 130.6-292.41 164.55-378.77a21.89 21.89 0 0 0-12.35-28.37 21.9 21.9 0 0 0-28.36 12.36ZM1301.71 2480.66l94.16 104.89c-30.3 20.78-89.57 60.03-121.4 86.97a21.89 21.89 0 0 0-2.56 30.83 21.89 21.89 0 0 0 30.83 2.56c41.67-35.27 130.09-91.63 140.14-100.56a21.83 21.83 0 0 0 1.76-30.97l-110.38-122.94a21.88 21.88 0 0 0-32.55 29.22Z"
      style="fill:#fff" />
  </g>
</svg>
